<?xml version="1.0" encoding="utf-8"?>
<!-- Generator: Adobe Illustrator 20.0.0, SVG Export Plug-In . SVG Version: 6.00 Build 0)  -->
<!DOCTYPE svg PUBLIC "-//W3C//DTD SVG 1.1//EN" "http://www.w3.org/Graphics/SVG/1.1/DTD/svg11.dtd">
<svg version="1.1" xmlns="http://www.w3.org/2000/svg" xmlns:xlink="http://www.w3.org/1999/xlink" x="0px" y="0px"
	 viewBox="0 0 687.4 367.9" style="enable-background:new 0 0 687.4 367.9;" xml:space="preserve">
<style type="text/css">
	.st0{fill:#0C1931;}
	.st1{fill:none;stroke:#30B44A;stroke-miterlimit:10;}
	.st2{fill:none;stroke:#0084B9;stroke-miterlimit:10;}
	.st3{fill:none;stroke:#80CCBA;stroke-miterlimit:10;}
	.st4{fill:none;stroke:#F8F2F4;stroke-miterlimit:10;}
	.st5{fill:#45C3D1;}
	.st6{fill:#1A86B0;}
	.st7{fill:#4E9443;}
</style>
<g id="background">
	<rect class="st0" width="687.4" height="367.9"/>
</g>
<g id="links">
	<polygon class="st1" points="549.5,85.6 566.7,130.9 536.5,128.9 521.2,96.6 	"/>
	<polygon class="st1" points="629.4,159.3 629.4,193.9 574.7,229.5 542.8,215.5 538.4,168.8 	"/>
	<polygon class="st1" points="484.3,76.4 473.7,115.2 502.1,133.6 521.2,98.8 	"/>
	<polygon class="st1" points="502.1,133.6 498.3,154.9 449.5,147.6 448.5,114.5 	"/>
	<polygon class="st1" points="382.2,153.2 419.4,150.2 425.6,171.9 433.4,190.8 498.3,130.9 408.8,134.7 	"/>
	<polygon class="st1" points="574.7,83.8 536.5,128.9 562,159.2 603.9,147.6 566.7,130.9 589,116.2 	"/>
	<polygon class="st1" points="595.5,178.4 603.9,147.6 629.4,162.7 595.6,201.1 	"/>
	<polygon class="st1" points="570.9,201.1 566.7,130.9 534.4,150.2 460.6,182.7 457.2,213.6 484.3,220.5 529,189 542.8,215.5 	"/>
	<polygon class="st1" points="464,45.7 443.8,66.4 420,57.2 424.8,35.5 411,15.9 	"/>
	<polygon class="st1" points="464,45.7 484.3,76.4 444.9,88.9 401.4,79.3 443.8,66.4 	"/>
	<polygon class="st1" points="483,166.2 502.1,196 534.4,150.2 498.3,154.9 	"/>
	<polygon class="st1" points="473.7,115.2 453.4,147.6 419.4,150.2 419,118.8 444.9,88.9 	"/>
	<polygon class="st1" points="348.9,85.2 397.8,111 349.8,178.4 338.4,161.8 328.9,136.4 350.7,103.2 	"/>
	<polygon class="st1" points="527.6,68.5 521.2,96.6 549.5,85.6 574.7,83.8 	"/>
	<polyline class="st1" points="457.2,213.6 437.7,217 455.7,211.1 484.3,220.5 540.4,249.3 540.8,211.7 529,189 498.3,154.9 
		448.5,114.5 401.4,79.3 367.3,72.5 371.6,134.1 419.4,150.2 425.6,171.9 	"/>
	<polygon class="st2" points="264.7,233.4 269.4,266.7 291.6,258.2 275.2,219 	"/>
	<polygon class="st2" points="293.5,161.2 338.4,161.8 351.6,179.5 327.7,182.7 292.6,190.1 	"/>
	<polygon class="st2" points="275.2,219 264,198.1 333.5,210.3 	"/>
	<polygon class="st2" points="319,312.4 364.1,306.4 413.1,295.7 345,274.1 	"/>
	<polygon class="st2" points="381.9,181.7 333.5,210.3 360.9,237.7 381.9,184 439.8,217 434.8,240.5 484.3,219 433.4,190.8 	"/>
	<path class="st2" d="M311.5,243.8l33.5,30.3l19.1,32.3c0,0,15.5-32.7,13.1-33.8C374.9,271.4,311.5,243.8,311.5,243.8z"/>
	<polygon class="st2" points="430.7,262.7 430.7,301.2 418.2,331 401.4,332.8 364.1,306.4 	"/>
	<polygon class="st2" points="413.1,295.7 401.4,335 363.4,328.7 364.1,306.4 	"/>
	<polygon class="st2" points="367.3,13.3 375.7,45.7 399.7,76.6 465.9,44.2 424.8,35.5 	"/>
	<polygon class="st2" points="367.3,72.5 350.7,103.2 371.6,134.1 400.8,109.9 	"/>
	<polygon class="st2" points="407.5,131.8 371.6,134.1 338.4,161.8 381.9,181.7 419.4,150.2 	"/>
	<polygon class="st2" points="360.9,237.7 345,274.1 305.9,297.8 311.5,243.8 399.7,214.4 	"/>
	<polygon class="st2" points="640.2,247.7 630.6,190.8 620.5,221 606.5,227.9 595.6,201.1 576.2,229.1 610.3,276.2 	"/>
	<polygon class="st2" points="605.9,231.3 562.1,266.9 541.8,247.9 544.9,213.6 574.7,233.1 	"/>
	<polygon class="st2" points="484.3,219 595.5,178.4 570.9,201.1 544.8,215.5 432.2,266.9 	"/>
	<polygon class="st1" points="166.2,242.2 139.5,223.5 124.7,207.3 152.6,203.2 	"/>
	<polygon class="st1" points="220.9,237.7 102,214.5 121.7,243.3 215.9,213.4 	"/>
	<polygon class="st1" points="58.6,157 122.2,160.2 108,177.8 93.6,194.4 76.4,177 	"/>
	<polygon class="st1" points="68.3,200.1 57.3,212.9 44.9,178.3 93.6,194.4 102,214.5 	"/>
	<polygon class="st1" points="84,235.3 57.3,212.9 104.8,232.6 118.8,226.5 121.7,243.3 	"/>
	<polygon class="st1" points="93.6,194.4 124.7,207.3 152.6,203.2 139.5,223.5 118.8,226.5 102,214.5 	"/>
	<polygon class="st1" points="155.2,170.6 139.5,148.9 122.2,160.2 130.1,190.8 	"/>
	<polygon class="st3" points="276.8,42.5 256.1,75.8 293.5,78.1 367.3,72.5 339.4,28.4 	"/>
	<polygon class="st3" points="153.8,169.4 189,180.5 208.9,190.1 187.8,162.8 	"/>
	<polygon class="st3" points="266.2,198.1 260.4,159.2 231.8,189 210.3,190.1 215.9,213.4 	"/>
	<polygon class="st3" points="109,176.5 130.1,190.3 152.6,203.2 180.6,213.4 155.2,169.4 108,177.8 	"/>
	<polygon class="st3" points="148,123.5 208.3,98 192.3,122.7 140.2,151.9 	"/>
	<polygon class="st3" points="231.8,118.8 194.4,151.9 261,156.1 246.4,132.2 	"/>
	<polygon class="st3" points="192.1,62.1 234.4,87.6 256.1,75.8 236.4,51.9 	"/>
	<polygon class="st3" points="176.3,97.6 152.9,64 192.1,62.1 190.4,78.6 208.3,98 	"/>
	<polygon class="st3" points="276.8,42.5 234.9,22.4 293.3,76.6 335.4,60.9 	"/>
	<polygon class="st3" points="256.1,75.8 235.2,88.7 230,120.8 302.4,123.9 	"/>
	<path class="st3" d="M155.2,104l21-6.4c0,0,10.8-23.1,12.5-21.1c1.7,2.1,19.9,18.4,19.9,18.4L194,121.8L155.2,104z"/>
	<polygon class="st3" points="93.3,104.4 95,87.8 148,123.5 120.4,124.9 	"/>
	<polygon class="st2" points="234.9,22.4 234.9,55.8 290.9,76.6 335.4,60.9 275.4,20 	"/>
	<polygon class="st1" points="84.8,237.1 68.3,200.1 45.4,179.5 106.4,177.4 102,214.5 	"/>
	<polygon class="st1" points="121.7,243.3 160.6,243.3 179.2,210.3 140.8,225 	"/>
	<path class="st4" d="M396.5,348.2"/>
	<polygon class="st3" points="394.8,353.8 401.4,335 419.4,332.8 413.1,295.7 363.4,328.7 	"/>
	<polygon class="st1" points="527.6,68.5 574.7,83.8 589.9,114.5 521.2,98.8 486.8,72.5 	"/>
	<path class="st2" d="M640.8,249.3l-34.4-16.2l-35.5-32.1l21.6-19.4c0,0,35.1,10.4,36.9,12.2C631.1,195.7,640.8,249.3,640.8,249.3z"
		/>
	<polygon class="st1" points="629.4,159.3 592.5,181.7 532,151.9 603.9,147.6 620.5,127 	"/>
	<polygon class="st1" points="419,118.8 474,109.5 540.4,127.7 498.3,154.9 452.4,150.2 	"/>
	<polygon class="st1" points="589.9,114.5 620.5,127 532,151.9 540.4,127.7 	"/>
	<polygon class="st2" points="610.3,276.2 606.5,233.1 574.7,229.5 504.7,251 565.1,267.8 	"/>
	<polygon class="st3" points="455.2,344.1 492,339 523.8,324.6 512.1,279.3 492,306 	"/>
	<polygon class="st2" points="459.8,279.8 419.4,332.8 455.2,322.5 492,306 	"/>
	<polygon class="st2" points="523.8,324.6 536.5,297 610.3,276.2 512.1,279.3 	"/>
	<polygon class="st2" points="320.8,313.2 363.4,328.7 432.2,266.9 377.9,274.2 331.6,288.7 	"/>
	<path class="st2" d="M394,251.5l110.7-0.5l-20.4-30.5l-50.9-29.7c0,0-54.6-8.8-53.4-7.5c1.1,1.3-19.1,54.4-19.1,54.4L394,251.5z"/>
	<path class="st2" d="M311.5,243.8c1.1,1.3,49.4-6,49.4-6l62.8-12l-25.9-11.3l-57.4-6.2L311.5,243.8z"/>
	<polygon class="st3" points="160.6,243.3 190.4,236.1 220.9,237.7 269.3,233 215.9,213.4 	"/>
	<polygon class="st3" points="266.1,288 291.6,278.2 269.3,233 246.4,258.8 	"/>
	<path class="st3" d="M174.5,35.4c0,0,28.5,8.6,30.6,10.3c2.1,1.7,30.1,43,30.1,43l-44.8-10.1L152.9,64L174.5,35.4z"/>
	<polygon class="st3" points="87.1,141.2 245.8,132.1 190.4,180.5 131.2,190.8 141.9,152.2 	"/>
	<polygon class="st3" points="57.3,144.6 64.5,119.9 95,87.8 120.4,124.9 87.1,141.2 	"/>
	<polygon class="st3" points="167.5,147.6 194,121.8 153.5,103.2 121.7,60.9 120.4,124.9 	"/>
	<polygon class="st1" points="411,15.9 335.4,60.9 367.3,72.5 400.3,48.8 466.2,45.7 	"/>
	<polygon class="st1" points="527.6,68.5 466.2,45.7 399.7,76.6 444.9,88.9 486.8,72.5 	"/>
	<polygon class="st2" points="302.4,106.4 350.7,103.2 400.8,109.9 386.3,153.7 327.7,138.3 	"/>
	<path class="st2" d="M233.6,188.7l35.7,44.2l71.1-24.7l11.2-28.8c0,0-57.7-18-57.1-16.5C295.1,164.4,233.6,188.7,233.6,188.7z"/>
	<polygon class="st3" points="262.9,104.4 294.5,162.9 292.2,191.8 233.6,188.7 245.8,132.1 	"/>
	<polygon class="st2" points="308.7,13.8 335.4,60.9 370,13.3 341.2,28.4 	"/>
	<polygon class="st3" points="234.9,22.4 174.5,35.4 121.7,60.9 95,87.8 153.5,103.2 152.9,64 205.1,45.7 	"/>
	<polygon class="st3" points="193.6,152.2 194,121.8 290.9,76.6 262.9,104.4 243.4,132.1 	"/>
	<polygon class="st2" points="327.7,138.3 399.7,76.6 367.3,72.5 350.7,103.2 	"/>
	<polygon class="st2" points="351.6,179.5 386.3,153.7 327.7,138.3 294.5,162.9 340.4,208.3 	"/>
	<polygon class="st1" points="419.4,150.2 463.6,184 504.7,195.7 498.3,154.9 452.4,150.2 	"/>
	<polygon class="st2" points="275.4,20 308.7,13.8 290.9,76.6 235.2,88.7 	"/>
	<polygon class="st3" points="87.1,141.2 45.4,179.5 102,214.5 132.1,189 	"/>
	<polygon class="st3" points="179.2,210.3 190.4,180.5 132.1,189 140.8,225 	"/>
	<path class="st3" d="M420.3,331.6l34.8,12.5v-21.6c0,0,3.8-45.4,6.9-44.3c3.1,1.1-49,17.6-49,17.6L420.3,331.6z"/>
	<polygon class="st3" points="266.1,288 331.6,288.7 363.4,328.7 320.8,313.2 	"/>
	<polygon class="st2" points="360.9,237.7 380.3,273.9 331.6,287 291.6,278.2 311.5,243.8 	"/>
	<polygon class="st2" points="610.3,276.2 640.8,249.3 565.1,267.8 512.1,279.3 536.5,297 	"/>
	<polygon class="st2" points="484.3,220.5 432.2,266.9 504.7,251 542.8,215.5 	"/>
	<path class="st3" d="M106.4,177.4l-49.2-32.8c0,0-15.4,35-11.9,34.9c3.5-0.1,22.9,20.6,22.9,20.6L106.4,177.4z"/>
	<polygon class="st2" points="371.5,11.8 411,15.9 400.3,48.8 335.4,60.9 341.2,28.4 	"/>
	<polygon class="st2" points="190.4,180.5 215.9,213.4 233.6,188.7 291.6,159.3 246.4,134.1 	"/>
	<polygon class="st3" points="190.4,78.6 194,121.8 262.9,104.4 235.2,88.7 	"/>
	<polygon class="st2" points="311.5,243.8 331.6,287 413.1,295.7 380.3,273.9 	"/>
	<polygon class="st1" points="484.3,220.5 463.6,184 540.5,168.4 504.7,195.7 	"/>
	<polygon class="st2" points="290.9,76.6 350.7,103.2 243.4,132.1 302.4,106.4 	"/>
	<polygon class="st1" points="474,109.5 463.6,184 452.4,150.2 444.9,88.9 521.2,98.8 	"/>
	<polygon class="st2" points="351.6,179.5 397.8,214.5 433.4,190.8 386.3,153.7 380,183.3 	"/>
	<polygon class="st2" points="492,339 512.1,279.3 504.7,251 460.6,282.1 	"/>
	<polygon class="st3" points="179.2,210.3 167.5,143.6 292.2,191.8 340.4,208.3 	"/>
	<polygon class="st1" points="466.2,45.7 444.9,88.9 473.7,115.2 589.9,114.5 	"/>
	<polygon class="st1" points="400.3,48.8 444.9,88.9 400.8,109.9 399.7,76.6 	"/>
	<polygon class="st2" points="327.7,138.3 246.4,134.1 386.3,153.7 400.8,109.9 	"/>
	<polygon class="st2" points="423.7,225.8 394,251.5 432.2,266.9 504.7,251 	"/>
	<polygon class="st3" points="64.5,119.9 120.4,124.9 153.5,103.2 	"/>
	<polygon class="st2" points="190.4,78.6 193.5,77.1 234.9,55.8 335.4,60.9 327.7,138.3 194,121.8 	"/>
	<polygon class="st2" points="565.1,267.8 574.7,229.5 570.9,201.1 541.8,169.4 	"/>
</g>
<g id="nodes">
	<g id="aqua">
		<path class="st5" d="M464,34.1c-7.1,0-13.1,4.8-13.1,10.6v1c0,5.8,6,10.6,13.1,10.6c7.1,0,13.1-4.8,13.1-10.6v-1
			C477.1,38.9,471.1,34.1,464,34.1z"/>
		<path class="st5" d="M473.7,101.7c-7.1,0-13.1,4.8-13.1,10.6v1c0,5.8,6,10.6,13.1,10.6c7.1,0,13.1-4.8,13.1-10.6v-1
			C486.8,106.5,480.8,101.7,473.7,101.7z"/>
		<path class="st5" d="M45.4,167.9c-16.9,0-16.9,21.2,0,21.2S62.3,167.9,45.4,167.9z"/>
		<path class="st5" d="M498.3,125.1c-11.3,0-11.3,14.1,0,14.1S509.6,125.1,498.3,125.1z"/>
		<path class="st5" d="M419.4,143.6c-11.3,0-11.3,14.1,0,14.1S430.7,143.6,419.4,143.6z"/>
		<path class="st5" d="M589.9,107.6c-4.8,0-8.7,3.2-8.7,7.1v1c0,3.8,4,7.1,8.7,7.1c4.8,0,8.7-3.2,8.7-7.1v-1
			C598.6,110.8,594.7,107.6,589.9,107.6z"/>
		<path class="st5" d="M163.7,235.2c-11.3,0-11.3,14.1,0,14.1S174.9,235.2,163.7,235.2z"/>
		<path class="st5" d="M121.7,236.2c-11.3,0-11.3,14.1,0,14.1S133,236.2,121.7,236.2z"/>
		<path class="st5" d="M76.4,169.9c-11.3,0-11.3,14.1,0,14.1C87.6,184,87.6,169.9,76.4,169.9z"/>
		<path class="st5" d="M503.4,188.9h-1.3c-4.8,0-8.7,3.2-8.7,7.1c0,3.8,4,7.1,8.7,7.1h1.3c4.8,0,8.7-3.2,8.7-7.1
			C512.1,192.1,508.2,188.9,503.4,188.9z"/>
		<path class="st5" d="M400.3,102.4h-1.3c-4.8,0-8.7,3.2-8.7,7.1c0,3.8,4,7.1,8.7,7.1h1.3c4.8,0,8.7-3.2,8.7-7.1
			C409.1,105.6,405.1,102.4,400.3,102.4z"/>
		<path class="st5" d="M592.5,172.4c-11.3,0-11.3,14.1,0,14.1S603.7,172.4,592.5,172.4z"/>
		<path class="st5" d="M84.8,229c-11.3,0-11.3,14.1,0,14.1S96.1,229,84.8,229z"/>
		<path class="st5" d="M603.9,140.5c-11.3,0-11.3,14.1,0,14.1C615.2,154.6,615.2,140.5,603.9,140.5z"/>
		<path class="st5" d="M539,119.9h-1.3c-4.8,0-8.7,3.2-8.7,7.1c0,3.8,4,7.1,8.7,7.1h1.3c4.8,0,8.7-3.2,8.7-7.1
			C547.8,123.1,543.8,119.9,539,119.9z"/>
		<path class="st5" d="M400.3,41.7c-11.3,0-11.3,14.1,0,14.1S411.6,41.7,400.3,41.7z"/>
		<path class="st5" d="M68.3,196c-6.4,0-6.4,8.1,0,8.1C74.7,204.1,74.7,196,68.3,196z"/>
		<path class="st5" d="M574.7,79.7c-6.4,0-6.4,8.1,0,8.1S581.1,79.7,574.7,79.7z"/>
		<path class="st5" d="M620.5,123c-6.4,0-6.4,8.1,0,8.1S626.9,123,620.5,123z"/>
		<path class="st5" d="M527.6,57.2c-17.7,0-17.7,22.2,0,22.2C545.3,79.4,545.3,57.2,527.6,57.2z"/>
		<path class="st5" d="M629.4,151.9c-14.5,0-14.5,18.2,0,18.2C643.8,170,643.8,151.9,629.4,151.9z"/>
		<path class="st5" d="M443.8,78.5c-14.5,0-14.5,18.2,0,18.2C458.3,96.7,458.3,78.5,443.8,78.5z"/>
		<path class="st5" d="M446.6,109.5c-9.1,0-9.1,11.4,0,11.4C455.7,120.8,455.7,109.5,446.6,109.5z"/>
		<path class="st5" d="M484.3,67.5c-14.5,0-14.5,18.2,0,18.2C498.8,85.6,498.8,67.5,484.3,67.5z"/>
		<path class="st5" d="M418.2,112.2c-10.5,0-10.5,13.1,0,13.1S428.6,112.2,418.2,112.2z"/>
		<path class="st5" d="M190.4,229.5c-10.5,0-10.5,13.1,0,13.1C200.9,242.6,200.9,229.5,190.4,229.5z"/>
		<path class="st5" d="M498.3,150.2c-7.2,0-7.2,9.1,0,9.1S505.5,150.2,498.3,150.2z"/>
		<path class="st5" d="M572.1,196.5c-7.2,0-7.2,9.1,0,9.1S579.3,196.5,572.1,196.5z"/>
		<path class="st5" d="M521.2,91.1c-9.6,0-9.6,12.1,0,12.1S530.9,91.1,521.2,91.1z"/>
		<path class="st5" d="M532.9,144.6h-1.8c-4.1,0-7.5,2.8-7.5,6.1s3.4,6.1,7.5,6.1h1.8c4.1,0,7.5-2.8,7.5-6.1S537,144.6,532.9,144.6z
			"/>
		<path class="st5" d="M386.3,145.7c-12.9,0-12.9,16.1,0,16.1C399.2,161.8,399.2,145.7,386.3,145.7z"/>
		<path class="st5" d="M400.3,67.5c-14.5,0-14.5,18.2,0,18.2S414.8,67.5,400.3,67.5z"/>
		<path class="st5" d="M461.4,175c-12.1,0-12.1,15.1,0,15.1C473.5,190.1,473.5,175,461.4,175z"/>
		<path class="st5" d="M433.4,182.2c-13.7,0-13.7,17.1,0,17.1S447.1,182.2,433.4,182.2z"/>
		<path class="st5" d="M460.2,146c-0.3-1.4-1.4-2.5-2.5-3.6c-0.9-0.9-3.1-1.9-4.5-2.1c-1.2-0.2-2.2-0.3-3.3-0.3
			c-5.1,0-9.4,3.4-9.4,7.6c0,2.3,1.3,4.4,3.4,5.8c1.7,1.7,4.3,2.8,7.2,2.8c5.1,0,9.4-3.4,9.4-7.6C460.6,147.7,460.4,146.9,460.2,146
			z"/>
		<path class="st5" d="M544.5,165.8c-1.6-1.6-4.1-2.6-6.8-2.6c-4.8,0-8.7,3.2-8.7,7.1c0,0.9,0.1,1.6,0.3,2.5
			c0.3,1.4,1.3,2.4,2.4,3.4c0.9,0.8,2.9,1.7,4.2,1.9c1.1,0.2,2,0.3,3.1,0.3c4.8,0,8.7-3.2,8.7-7.1
			C547.8,169.1,546.5,167.1,544.5,165.8z"/>
		<path class="st5" d="M102.6,205.4h-1.3c-6.1,0-11.2,4.1-11.2,9.1c0,4.9,5.1,9.1,11.2,9.1h1.3c6.1,0,11.2-4.1,11.2-9.1
			C113.8,209.5,108.7,205.4,102.6,205.4z"/>
		<path class="st5" d="M139.5,213.6c-6.1,0-11.2,4.1-11.2,9.1v1.3c0,4.9,5.1,9.1,11.2,9.1c6.1,0,11.2-4.1,11.2-9.1v-1.3
			C150.7,217.7,145.6,213.6,139.5,213.6z"/>
		<path class="st5" d="M93.6,191.3c-6.4,0-6.4,8.1,0,8.1C100,199.3,100,191.3,93.6,191.3z"/>
		<path class="st5" d="M124.7,203.9c-6.4,0-6.4,8.1,0,8.1C131.2,211.9,131.2,203.9,124.7,203.9z"/>
		<path class="st5" d="M121.6,157c-6.4,0-6.4,8.1,0,8.1C128,165,128,157,121.6,157z"/>
		<path class="st5" d="M57.4,208.9c-6.4,0-6.4,8.1,0,8.1C63.8,217,63.8,208.9,57.4,208.9z"/>
		<path class="st5" d="M58.6,154.4c-1.7,0-3.1,1.1-3.1,2.5v0.5c0,1.4,1.4,2.5,3.1,2.5c1.7,0,3.1-1.1,3.1-2.5V157
			C61.8,155.6,60.3,154.4,58.6,154.4z"/>
		<path class="st5" d="M119.1,224h-0.6c-1.7,0-3.1,1.1-3.1,2.5s1.4,2.5,3.1,2.5h0.6c1.7,0,3.1-1.1,3.1-2.5S120.8,224,119.1,224z"/>
		<path class="st5" d="M104.8,230.1c-4,0-4,5,0,5C108.8,235.1,108.8,230.1,104.8,230.1z"/>
		<path class="st5" d="M443.1,61.8c-7.2,0-7.2,9.1,0,9.1C450.3,70.9,450.3,61.8,443.1,61.8z"/>
		<path class="st5" d="M420.6,51.8c-3.1,0-5.6,2.1-5.6,4.5V57c0,2.5,2.6,4.5,5.6,4.5c3.1,0,5.6-2.1,5.6-4.5v-0.7
			C426.3,53.8,423.7,51.8,420.6,51.8z"/>
		<path class="st5" d="M566.1,126.4c-7.2,0-7.2,9.1,0,9.1C573.4,135.5,573.4,126.4,566.1,126.4z"/>
		<path class="st5" d="M481.3,162.7h-0.8c-3.1,0-5.6,2.1-5.6,4.5c0,2.5,2.6,4.5,5.6,4.5h0.8c3.1,0,5.6-2.1,5.6-4.5
			C486.9,164.8,484.4,162.7,481.3,162.7z"/>
		<path class="st5" d="M527,186.9c-7.2,0-7.2,9.1,0,9.1C534.3,196,534.3,186.9,527,186.9z"/>
		<path class="st5" d="M562,153.9c-7.2,0-7.2,9.1,0,9.1C569.2,163,569.2,153.9,562,153.9z"/>
		<path class="st5" d="M551.2,80.7c-7.2,0-7.2,9.1,0,9.1C558.4,89.7,558.4,80.7,551.2,80.7z"/>
		<path class="st5" d="M425.6,166c-3.1,0-5.6,2.1-5.6,4.5v0.7c0,2.5,2.6,4.5,5.6,4.5c3.1,0,5.6-2.1,5.6-4.5v-0.7
			C431.2,168.1,428.7,166,425.6,166z"/>
		<path class="st5" d="M457.2,209.1c-7.2,0-7.2,9.1,0,9.1C464.5,218.1,464.5,209.1,457.2,209.1z"/>
		<path class="st5" d="M352,83.2c-0.7-1.8-2.8-3.2-5.3-3.2c-3.1,0-5.6,2.1-5.6,4.5c0,1.1,0.3,2,0.9,2.9c0.4,0.6,1,1.1,1.6,1.6
			c2.2,1.8,5.8,1.7,7.9,0C353.4,87.5,353.6,85,352,83.2z"/>
	</g>
	<g id="blue">
		<path class="st6" d="M123,50.5c-16.9,0-16.9,21.2,0,21.2S139.9,50.5,123,50.5z"/>
		<path class="st6" d="M363.4,318.1c-16.9,0-16.9,21.2,0,21.2C380.3,339.3,380.3,318.1,363.4,318.1z"/>
		<path class="st6" d="M276,280c-0.4-0.3-0.8-0.7-1.3-1c-5-4.1-13.5-4.1-18.5,0c-5,4.1-5,10.9,0,15c0.4,0.3,0.8,0.7,1.3,1
			c5,4.1,13.5,4.1,18.5,0C281.1,290.9,281.1,284.1,276,280z"/>
		<path class="st6" d="M220.9,226.5c-16.9,0-16.9,21.2,0,21.2C237.8,247.7,237.8,226.5,220.9,226.5z"/>
		<path class="st6" d="M394.8,343.2c-16.9,0-16.9,21.2,0,21.2C411.7,364.4,411.7,343.2,394.8,343.2z"/>
		<path class="st6" d="M175.1,28.4h-1.3c-4.8,0-8.7,3.2-8.7,7.1c0,3.8,4,7.1,8.7,7.1h1.3c4.8,0,8.7-3.2,8.7-7.1
			C183.9,31.6,179.9,28.4,175.1,28.4z"/>
		<path class="st6" d="M321.5,306.2h-1.3c-4.8,0-8.7,3.2-8.7,7.1c0,3.8,4,7.1,8.7,7.1h1.3c4.8,0,8.7-3.2,8.7-7.1
			C330.2,309.4,326.2,306.2,321.5,306.2z"/>
		<path class="st6" d="M419.4,325.7c-11.3,0-11.3,14.1,0,14.1S430.7,325.7,419.4,325.7z"/>
		<path class="st6" d="M64.5,112.7c-11.3,0-11.3,14.1,0,14.1C75.7,126.8,75.7,112.7,64.5,112.7z"/>
		<path class="st6" d="M523.8,317.5c-11.3,0-11.3,14.1,0,14.1S535,317.5,523.8,317.5z"/>
		<path class="st6" d="M455.1,315.4c-11.3,0-11.3,14.1,0,14.1C466.3,329.6,466.3,315.4,455.1,315.4z"/>
		<path class="st6" d="M240.9,22.8c-0.2-2.9-2.6-5.7-7.2-5.7c-9.6,0-9.6,12.1,0,12.1c2.2,0,3.8-0.6,5-1.5c0.4-0.2,0.7-0.4,1.1-0.6
			C241.1,25.8,241.5,24.2,240.9,22.8z"/>
		<path class="st6" d="M401.4,331c-6.4,0-6.4,8.1,0,8.1C407.8,339.1,407.8,331,401.4,331z"/>
		<path class="st6" d="M492,326.9c-19.3,0-19.3,24.2,0,24.2C511.2,351.1,511.2,326.9,492,326.9z"/>
		<path class="st6" d="M246.4,248.6c-6.1,0-11.2,4.1-11.2,9.1v1c0,4.9,5.1,9.1,11.2,9.1c6.1,0,11.2-4.1,11.2-9.1v-1
			C257.6,252.7,252.5,248.6,246.4,248.6z"/>
		<path class="st6" d="M455.1,335c-14.5,0-14.5,18.2,0,18.2C469.5,353.2,469.5,335,455.1,335z"/>
		<path class="st6" d="M95,82.4c-10.5,0-10.5,13.1,0,13.1C105.4,95.5,105.4,82.4,95,82.4z"/>
		<path class="st6" d="M58.1,135.9h-1.6c-4.4,0-8.1,3-8.1,6.6c0,3.6,3.7,6.6,8.1,6.6h1.6c4.4,0,8.1-3,8.1-6.6
			C66.2,138.9,62.5,135.9,58.1,135.9z"/>
		<path class="st6" d="M292.2,274.2c-1.4,0-2.5,0.6-3.2,1.5c-1.1,0.5-1.9,1.5-1.8,2.6c0,1.1,0.3,2.2,1.3,3c1.6,1.2,4,1.2,5.6,0
			c1.3-1,1.9-2.6,1.9-4C296,275.6,294.2,274.2,292.2,274.2z"/>
		<path class="st6" d="M331.6,284.5c-2,0-3.7,1.4-3.7,3v1c0,1.6,1.7,3,3.7,3c2,0,3.7-1.4,3.7-3v-1
			C335.4,285.9,333.7,284.5,331.6,284.5z"/>
		<path class="st6" d="M269.3,225.4c-12.1,0-12.1,15.1,0,15.1C281.4,240.5,281.4,225.4,269.3,225.4z"/>
		<path class="st6" d="M153.5,91.7c-16.9,0-16.9,21.2,0,21.2C170.4,112.9,170.4,91.7,153.5,91.7z"/>
		<path class="st6" d="M234.9,79.8c-11.3,0-11.3,14.1,0,14.1S246.2,79.8,234.9,79.8z"/>
		<path class="st6" d="M232.7,181.7h-1.8c-4.8,0-8.7,3.2-8.7,7.1c0,3.8,4,7.1,8.7,7.1h1.8c4.8,0,8.7-3.2,8.7-7.1
			C241.4,184.9,237.4,181.7,232.7,181.7z"/>
		<path class="st6" d="M120.4,117.9c-11.3,0-11.3,14.1,0,14.1C131.7,132,131.7,117.9,120.4,117.9z"/>
		<path class="st6" d="M140.8,144.6c-4.8,0-8.7,3.2-8.7,7.1v1c0,3.8,4,7.1,8.7,7.1c4.8,0,8.7-3.2,8.7-7.1v-1
			C149.5,147.8,145.5,144.6,140.8,144.6z"/>
		<path class="st6" d="M194,148.2c-6.4,0-6.4,8.1,0,8.1S200.5,148.2,194,148.2z"/>
		<path class="st6" d="M89.9,125.7c-9.9,0-18.1,6.7-18.1,14.6c0,8,8.2,14.6,18.1,14.6s18.1-6.7,18.1-14.6
			C108,132.4,99.8,125.7,89.9,125.7z"/>
		<path class="st6" d="M193.3,200c-3.4-2.7-8-4.3-12.8-4.3h-1.8c-4.8,0-9.4,1.6-12.8,4.3c-3.4,2.7-5.3,6.5-5.3,10.3
			s1.9,7.6,5.3,10.3c3.4,2.7,8,4.3,12.8,4.3h1.8c4.8,0,9.4-1.6,12.8-4.3c3.4-2.7,5.3-6.5,5.3-10.3S196.7,202.7,193.3,200z"/>
		<path class="st6" d="M190.4,68.5c-6.1,0-11.2,4.1-11.2,9.1v1c0,4.9,5.1,9.1,11.2,9.1c6.1,0,11.2-4.1,11.2-9.1v-1
			C201.6,72.7,196.5,68.5,190.4,68.5z"/>
		<path class="st6" d="M237.5,42.8c-14.5,0-14.5,18.2,0,18.2C252,60.9,252,42.8,237.5,42.8z"/>
		<path class="st6" d="M246.4,123.1h-1.3c-6.1,0-11.2,4.1-11.2,9.1c0,4.9,5.1,9.1,11.2,9.1h1.3c6.1,0,11.2-4.1,11.2-9.1
			C257.6,127.2,252.5,123.1,246.4,123.1z"/>
		<path class="st6" d="M204.4,36.6c-14.5,0-14.5,18.2,0,18.2C218.9,54.8,218.9,36.6,204.4,36.6z"/>
		<path class="st6" d="M107.7,170.9h-2.5c-4.4,0-8.1,3-8.1,6.6c0,3.6,3.7,6.6,8.1,6.6h2.5c4.4,0,8.1-3,8.1-6.6
			C115.8,173.8,112.1,170.9,107.7,170.9z"/>
		<path class="st6" d="M153.5,56.2h-1.3c-5.4,0-10,3.7-10,8.1c0,4.4,4.5,8.1,10,8.1h1.3c5.4,0,10-3.7,10-8.1
			C163.5,59.8,159,56.2,153.5,56.2z"/>
		<path class="st6" d="M138.2,184.6c-1.8-1.8-4.6-2.9-7.6-2.9c-5.4,0-10,3.7-10,8.1c0,0.9,0.2,1.8,0.4,2.8c0.3,1.5,1.5,2.7,2.7,3.8
			c1,0.9,3.3,2,4.7,2.2c1.2,0.2,2.3,0.3,3.4,0.3c5.4,0,10-3.7,10-8.1C141.9,188.3,140.4,186.1,138.2,184.6z"/>
		<path class="st6" d="M194.2,112.8c-14.5,0-14.5,18.2,0,18.2S208.7,112.8,194.2,112.8z"/>
		<path class="st6" d="M215.9,205.9c-12.1,0-12.1,15.1,0,15.1C227.9,221,227.9,205.9,215.9,205.9z"/>
		<path class="st6" d="M190.4,172.9c-12.1,0-12.1,15.1,0,15.1C202.5,188.1,202.5,172.9,190.4,172.9z"/>
		<path class="st6" d="M158.2,146.5v0.8c0,9.8,18.7,9.8,18.7,0v-0.8C176.9,136.8,158.2,136.8,158.2,146.5z"/>
		<path class="st6" d="M176.3,93.6c-4.8,0-4.8,6.1,0,6.1C181.1,99.7,181.1,93.6,176.3,93.6z"/>
		<path class="st6" d="M208.7,95c-4.8,0-4.8,6.1,0,6.1C213.5,101,213.5,95,208.7,95z"/>
		<path class="st6" d="M232.8,115.8c-4.8,0-4.8,6.1,0,6.1C237.6,121.8,237.6,115.8,232.8,115.8z"/>
		<path class="st6" d="M256.1,72.8h-0.8c-2,0-3.7,1.4-3.7,3c0,1.6,1.7,3,3.7,3h0.8c2,0,3.7-1.4,3.7-3
			C259.8,74.1,258.1,72.8,256.1,72.8z"/>
		<path class="st6" d="M188.7,160.2c-4.8,0-4.8,6.1,0,6.1C193.6,166.2,193.6,160.2,188.7,160.2z"/>
		<path class="st6" d="M210.3,187.1c-4.8,0-4.8,6.1,0,6.1C215.2,193.1,215.2,187.1,210.3,187.1z"/>
		<path class="st6" d="M261,156.1c-4.8,0-4.8,6.1,0,6.1C265.9,162.2,265.9,156.1,261,156.1z"/>
		<path class="st6" d="M159,167.8c-1.5-1.2-3.8-1.1-5.3,0c0,0,0,0,0,0c0,0,0,0,0,0c-0.4,0.2-0.9,0.5-1.3,0.7c-1,0.7-1.4,1.7-1.4,2.7
			c-0.1,1.6,1.8,3,3.7,3c1.4,0,2.5-0.6,3.2-1.5c0.4-0.2,0.8-0.5,1.2-0.7C160.4,170.9,160.4,168.9,159,167.8z"/>
		<path class="st6" d="M148.8,120.5h-1.7c-2,0-3.7,1.4-3.7,3c0,1.6,1.7,3,3.7,3h1.7c2,0,3.7-1.4,3.7-3
			C152.6,121.9,150.9,120.5,148.8,120.5z"/>
		<path class="st6" d="M192.1,58c-4.8,0-4.8,6.1,0,6.1C196.9,64,196.9,58,192.1,58z"/>
		<path class="st6" d="M276.8,38.8c-6.4,0-6.4,8.1,0,8.1C283.3,46.9,283.3,38.8,276.8,38.8z"/>
		<path class="st6" d="M304.3,120.8c-6.4,0-6.4,8.1,0,8.1C310.7,128.9,310.7,120.8,304.3,120.8z"/>
		<path class="st6" d="M266,194.1c-6.4,0-6.4,8.1,0,8.1S272.5,194.1,266,194.1z"/>
		<path class="st6" d="M156.3,202.9c0-2.2-2.3-4-5-4c-1.6,0-3.1,0.3-4.2,1.2c-1.2,0.9-1.6,2.2-1.6,3.5c0,2.2,2.3,4,5,4
			c1.6,0,3-0.6,3.9-1.6C155.5,205.3,156.3,204.1,156.3,202.9z"/>
		<path class="st6" d="M93.1,101.3h-0.8c-2.7,0-5,1.8-5,4c0,2.2,2.3,4,5,4h0.8c2.7,0,5-1.8,5-4C98.1,103.2,95.9,101.3,93.1,101.3z"
			/>
	</g>
	<g id="green">
		<path class="st7" d="M327.8,127.7c-16.9,0-16.9,21.2,0,21.2C344.7,148.9,344.7,127.7,327.8,127.7z"/>
		<path class="st7" d="M630.6,183.3c-16.9,0-16.9,21.2,0,21.2C647.5,204.5,647.5,183.3,630.6,183.3z"/>
		<path class="st7" d="M640.8,236.8c-7.1,0-13.1,4.8-13.1,10.6v1c0,5.8,6,10.6,13.1,10.6c7.1,0,13.1-4.8,13.1-10.6v-1
			C653.9,241.6,647.9,236.8,640.8,236.8z"/>
		<path class="st7" d="M273.1,9.4c-16.9,0-16.9,21.2,0,21.2C290,30.6,290,9.4,273.1,9.4z"/>
		<path class="st7" d="M380,172c-16.9,0-16.9,21.2,0,21.2C396.9,193.1,396.9,172,380,172z"/>
		<path class="st7" d="M338,197.7c-16.9,0-16.9,21.2,0,21.2C354.9,218.9,354.9,197.7,338,197.7z"/>
		<path class="st7" d="M367.3,65.4c-11.3,0-11.3,14.1,0,14.1C378.5,79.5,378.5,65.4,367.3,65.4z"/>
		<path class="st7" d="M377.3,12.8c0-3.8-4-7.1-8.7-7.1c-1.1,0-2,0.1-3.1,0.3c-1.7,0.2-2.9,1.1-4.2,1.9c-1,0.7-2.2,2.3-2.4,3.4
			c-0.2,0.9-0.3,1.7-0.3,2.5c0,3.8,4,7.1,8.7,7.1c2.7,0,5.1-1,6.8-2.6C376,16.9,377.3,15,377.3,12.8z"/>
		<path class="st7" d="M536.5,288.7c-11.3,0-11.3,14.1,0,14.1S547.7,288.7,536.5,288.7z"/>
		<path class="st7" d="M610.3,269.1c-11.3,0-11.3,14.1,0,14.1S621.5,269.1,610.3,269.1z"/>
		<path class="st7" d="M542.8,206.4c-11.3,0-11.3,14.1,0,14.1S554.1,206.4,542.8,206.4z"/>
		<path class="st7" d="M290.9,184.8c-11.3,0-11.3,14.1,0,14.1C302.2,198.9,302.2,184.8,290.9,184.8z"/>
		<path class="st7" d="M432.2,258.8c-11.3,0-11.3,14.1,0,14.1S443.4,258.8,432.2,258.8z"/>
		<path class="st7" d="M422.3,219c-11.3,0-11.3,14.1,0,14.1S433.5,219,422.3,219z"/>
		<path class="st7" d="M340.5,21.3c-11.3,0-11.3,14.1,0,14.1S351.7,21.3,340.5,21.3z"/>
		<path class="st7" d="M378.7,265c-4.8,0-8.7,3.2-8.7,7.1v2.1c0,3.8,4,7.1,8.7,7.1c4.8,0,8.7-3.2,8.7-7.1v-2.1
			C387.4,268.2,383.5,265,378.7,265z"/>
		<path class="st7" d="M410.5,11.8c-6.4,0-6.4,8.1,0,8.1S417,11.8,410.5,11.8z"/>
		<path class="st7" d="M606.5,227.9c-2.7,0-5,1.8-5,4v1c0,2.2,2.3,4,5,4s5-1.8,5-4v-1C611.4,229.7,609.2,227.9,606.5,227.9z"/>
		<path class="st7" d="M460.1,275.2c-2.7,0-5,1.8-5,4v1c0,2.2,2.3,4,5,4s5-1.8,5-4v-1C465.1,277.1,462.9,275.2,460.1,275.2z"/>
		<path class="st7" d="M565.7,254.8h-1.3c-8.2,0-15,5.5-15,12.1c0,6.6,6.8,12.1,15,12.1h1.3c8.2,0,15-5.5,15-12.1
			C580.7,260.3,573.9,254.8,565.7,254.8z"/>
		<path class="st7" d="M325.3,232.7c-3.4-2.7-8-4.3-12.8-4.3c-4.8,0-9.4,1.6-12.8,4.3c-3.4,2.7-5.3,6.5-5.3,10.3v1.5
			c0,3.9,1.9,7.6,5.3,10.3c3.4,2.7,8,4.3,12.8,4.3c4.8,0,9.4-1.6,12.8-4.3c3.4-2.7,5.3-6.5,5.3-10.3v-1.5
			C330.6,239.2,328.7,235.4,325.3,232.7z"/>
		<path class="st7" d="M497.1,209.3c-3.4-2.7-8-4.3-12.8-4.3s-9.4,1.6-12.8,4.3c-3.4,2.7-5.3,6.5-5.3,10.3v1c0,3.9,1.9,7.6,5.3,10.3
			c3.4,2.7,8,4.3,12.8,4.3s9.4-1.6,12.8-4.3c3.4-2.7,5.3-6.5,5.3-10.3v-1C502.4,215.7,500.5,212,497.1,209.3z"/>
		<path class="st7" d="M293.5,64c-9.9,0-18.1,6.7-18.1,14.6s8.2,14.6,18.1,14.6s18.1-6.7,18.1-14.6S303.3,64,293.5,64z"/>
		<path class="st7" d="M492,297c-14.5,0-14.5,18.2,0,18.2C506.4,315.1,506.4,297,492,297z"/>
		<path class="st7" d="M349.5,96.8c-10.5,0-10.5,13.1,0,13.1C359.9,109.9,359.9,96.8,349.5,96.8z"/>
		<path class="st7" d="M574.7,225.6c-2,0-3.7,1.4-3.7,3v1.5c0,1.6,1.7,3,3.7,3c2,0,3.7-1.4,3.7-3v-1.5
			C578.4,227,576.7,225.6,574.7,225.6z"/>
		<path class="st7" d="M367.5,233.8c-0.3-0.2-0.6-0.5-0.9-0.7c0.4,0.3-1.2-0.9-1.7-1c-0.6-0.3-1.2-0.5-1.8-0.6c-1.3-0.3-2.7-0.3-4,0
			c-1.2,0.2-2.5,0.9-3.4,1.6c-1.1,0.9-1.4,1.6-2,2.7c-0.3,0.6-0.3,1.5-0.3,2.3c0,3.3,3.4,6.1,7.5,6.1c0.3,0,0.6,0,0.9-0.1
			c2,0.1,4.1-0.5,5.6-1.7C370.3,240.1,370.3,236.2,367.5,233.8z"/>
		<path class="st7" d="M411.8,289.7c-9.6,0-9.6,12.1,0,12.1S421.4,289.7,411.8,289.7z"/>
		<path class="st7" d="M292.2,155.4c-12.1,0-12.1,15.1,0,15.1C304.3,170.6,304.3,155.4,292.2,155.4z"/>
		<path class="st7" d="M394,238.4c-20.9,0-20.9,26.2,0,26.2C414.9,264.6,414.9,238.4,394,238.4z"/>
		<path class="st7" d="M512.3,266.2c-20.9,0-20.9,26.2,0,26.2C533.2,292.4,533.2,266.2,512.3,266.2z"/>
		<path class="st7" d="M308.7,5.2c-13.7,0-13.7,17.1,0,17.1C322.4,22.4,322.4,5.2,308.7,5.2z"/>
		<path class="st7" d="M335.5,53.5c-12.1,0-12.1,15.1,0,15.1C347.5,68.7,347.5,53.5,335.5,53.5z"/>
		<path class="st7" d="M302.4,98.8c-12.1,0-12.1,15.1,0,15.1C314.4,114,314.4,98.8,302.4,98.8z"/>
		<path class="st7" d="M349.5,171.9c-12.1,0-12.1,15.1,0,15.1C361.5,187,361.5,171.9,349.5,171.9z"/>
		<path class="st7" d="M397.8,205.7c-5.1,0-9.4,3.4-9.4,7.6v1.5c0,4.1,4.3,7.6,9.4,7.6c5.1,0,9.4-3.4,9.4-7.6v-1.5
			C407.2,209.1,402.9,205.7,397.8,205.7z"/>
		<path class="st7" d="M504.7,242.9c-5.1,0-9.4,3.4-9.4,7.6v1c0,4.1,4.3,7.6,9.4,7.6c5.1,0,9.4-3.4,9.4-7.6v-1
			C514,246.3,509.8,242.9,504.7,242.9z"/>
		<path class="st7" d="M262.9,97.3c-11.3,0-11.3,14.1,0,14.1S274.2,97.3,262.9,97.3z"/>
		<path class="st7" d="M371.6,129.6c-2.7,0-5,1.8-5,4v0.7c0,2.2,2.3,4,5,4c2.7,0,5-1.8,5-4v-0.7
			C376.6,131.4,374.3,129.6,371.6,129.6z"/>
		<path class="st7" d="M338.4,157.1c-6.4,0-6.4,8.1,0,8.1C344.8,165.2,344.8,157.1,338.4,157.1z"/>
		<path class="st7" d="M275.2,215c-6.4,0-6.4,8.1,0,8.1C281.6,223,281.6,215,275.2,215z"/>
		<path class="st7" d="M290.1,252.6c-6.4,0-6.4,8.1,0,8.1C296.6,260.7,296.6,252.6,290.1,252.6z"/>
		<path class="st7" d="M269.4,258.6c-6.4,0-6.4,8.1,0,8.1C275.8,266.7,275.8,258.6,269.4,258.6z"/>
		<path class="st7" d="M345,270.1c-6.4,0-6.4,8.1,0,8.1C351.4,278.1,351.4,270.1,345,270.1z"/>
		<path class="st7" d="M439.8,210.7c-8.8,0-8.8,11.1,0,11.1C448.6,221.8,448.6,210.7,439.8,210.7z"/>
		<path class="st7" d="M407.3,128.1h-0.8c-3.7,0-6.9,2.5-6.9,5.5c0,3,3.1,5.5,6.9,5.5h0.8c3.7,0,6.9-2.5,6.9-5.5
			C414.2,130.6,411.1,128.1,407.3,128.1z"/>
		<path class="st7" d="M424.8,29.9c-8.8,0-8.8,11.1,0,11.1C433.6,41,433.6,29.9,424.8,29.9z"/>
		<path class="st7" d="M434.8,235c-8.8,0-8.8,11.1,0,11.1C443.6,246,443.6,235,434.8,235z"/>
		<path class="st7" d="M483,276c-8.8,0-8.8,11.1,0,11.1C491.8,287.1,491.8,276,483,276z"/>
		<path class="st7" d="M429.8,294.8c-8.8,0-8.8,11.1,0,11.1C438.6,305.9,438.6,294.8,429.8,294.8z"/>
		<path class="st7" d="M364.1,300.8c-8.8,0-8.8,11.1,0,11.1C373,311.9,373,300.8,364.1,300.8z"/>
		<path class="st7" d="M305.9,290.1c-8.8,0-8.8,11.1,0,11.1C314.8,301.2,314.8,290.1,305.9,290.1z"/>
		<path class="st7" d="M539.5,242c-10.5,0-10.5,13.1,0,13.1C550,255.1,550,242,539.5,242z"/>
		<path class="st7" d="M621,214.4c-10.5,0-10.5,13.1,0,13.1C631.4,227.6,631.4,214.4,621,214.4z"/>
		<path class="st7" d="M596,195.1h-0.8c-3.4,0-6.2,2.3-6.2,5c0,2.7,2.8,5,6.2,5h0.8c3.4,0,6.2-2.3,6.2-5
			C602.3,197.4,599.4,195.1,596,195.1z"/>
		<path class="st7" d="M375.8,40.3c-7.2,0-7.2,9.1,0,9.1C383,49.4,383,40.3,375.8,40.3z"/>
		<path class="st7" d="M328.4,178.1c-7.2,0-7.2,9.1,0,9.1C335.6,187.2,335.6,178.1,328.4,178.1z"/>
	</g>
</g>
</svg>
